<mxfile host="app.diagrams.net" agent="Mozilla/5.0 (Windows NT 10.0; Win64; x64) AppleWebKit/537.36 (KHTML, like Gecko) Chrome/141.0.0.0 Safari/537.36" version="28.2.7" pages="3">
  <diagram name="User authentication-Application-view" id="YeG7Ckts6R5RYlu5Adbj">
    <mxGraphModel dx="2564" dy="993" grid="1" gridSize="10" guides="1" tooltips="1" connect="1" arrows="1" fold="1" page="1" pageScale="1" pageWidth="827" pageHeight="1169" math="0" shadow="0">
      <root>
        <mxCell id="0" />
        <mxCell id="1" parent="0" />
        <mxCell id="P9illkIWzVxfTOXOxCr--1" value="&lt;h1 style=&quot;margin-top: 0px;&quot;&gt;User Authentication:Application-view&lt;/h1&gt;&lt;p&gt;Lorem ipsum dolor sit amet, consectetur adipisicing elit, sed do eiusmod tempor incididunt ut labore et dolore magna aliqua.&lt;/p&gt;" style="text;html=1;whiteSpace=wrap;overflow=hidden;rounded=0;" vertex="1" parent="1">
          <mxGeometry x="-780" y="40" width="800" height="90" as="geometry" />
        </mxCell>
        <mxCell id="u4POlAHBwoxaa7_STbuZ-3" style="edgeStyle=orthogonalEdgeStyle;rounded=0;orthogonalLoop=1;jettySize=auto;html=1;entryX=0;entryY=0.5;entryDx=0;entryDy=0;" edge="1" parent="1" source="u4POlAHBwoxaa7_STbuZ-1" target="u4POlAHBwoxaa7_STbuZ-2">
          <mxGeometry relative="1" as="geometry" />
        </mxCell>
        <mxCell id="u4POlAHBwoxaa7_STbuZ-1" value="Start" style="ellipse;whiteSpace=wrap;html=1;aspect=fixed;" vertex="1" parent="1">
          <mxGeometry x="-720" y="400" width="80" height="80" as="geometry" />
        </mxCell>
        <mxCell id="u4POlAHBwoxaa7_STbuZ-5" style="edgeStyle=orthogonalEdgeStyle;rounded=0;orthogonalLoop=1;jettySize=auto;html=1;entryX=0;entryY=0.5;entryDx=0;entryDy=0;" edge="1" parent="1" source="u4POlAHBwoxaa7_STbuZ-2" target="u4POlAHBwoxaa7_STbuZ-4">
          <mxGeometry relative="1" as="geometry" />
        </mxCell>
        <mxCell id="u4POlAHBwoxaa7_STbuZ-2" value="App shows &quot;login screen&quot;" style="rounded=0;whiteSpace=wrap;html=1;" vertex="1" parent="1">
          <mxGeometry x="-550" y="410" width="120" height="60" as="geometry" />
        </mxCell>
        <mxCell id="u4POlAHBwoxaa7_STbuZ-7" style="edgeStyle=orthogonalEdgeStyle;rounded=0;orthogonalLoop=1;jettySize=auto;html=1;entryX=0;entryY=0.5;entryDx=0;entryDy=0;" edge="1" parent="1" source="u4POlAHBwoxaa7_STbuZ-4" target="u4POlAHBwoxaa7_STbuZ-6">
          <mxGeometry relative="1" as="geometry" />
        </mxCell>
        <mxCell id="u4POlAHBwoxaa7_STbuZ-4" value="User taps on &quot;Sign in with Google&quot; button" style="rounded=0;whiteSpace=wrap;html=1;" vertex="1" parent="1">
          <mxGeometry x="-340" y="410" width="120" height="60" as="geometry" />
        </mxCell>
        <mxCell id="u4POlAHBwoxaa7_STbuZ-9" style="edgeStyle=orthogonalEdgeStyle;rounded=0;orthogonalLoop=1;jettySize=auto;html=1;entryX=0;entryY=0.5;entryDx=0;entryDy=0;" edge="1" parent="1" source="u4POlAHBwoxaa7_STbuZ-6" target="u4POlAHBwoxaa7_STbuZ-8">
          <mxGeometry relative="1" as="geometry" />
        </mxCell>
        <mxCell id="u4POlAHBwoxaa7_STbuZ-6" value="Backend: Begin Sign-In process" style="rounded=0;whiteSpace=wrap;html=1;dashed=1;" vertex="1" parent="1">
          <mxGeometry x="-140" y="410" width="120" height="60" as="geometry" />
        </mxCell>
        <mxCell id="u4POlAHBwoxaa7_STbuZ-19" style="edgeStyle=orthogonalEdgeStyle;rounded=0;orthogonalLoop=1;jettySize=auto;html=1;entryX=0;entryY=0.5;entryDx=0;entryDy=0;" edge="1" parent="1" source="u4POlAHBwoxaa7_STbuZ-8" target="u4POlAHBwoxaa7_STbuZ-18">
          <mxGeometry relative="1" as="geometry" />
        </mxCell>
        <mxCell id="u4POlAHBwoxaa7_STbuZ-20" value="Yes" style="edgeLabel;html=1;align=center;verticalAlign=middle;resizable=0;points=[];" vertex="1" connectable="0" parent="u4POlAHBwoxaa7_STbuZ-19">
          <mxGeometry x="-0.7628" y="-2" relative="1" as="geometry">
            <mxPoint x="-1" as="offset" />
          </mxGeometry>
        </mxCell>
        <mxCell id="u4POlAHBwoxaa7_STbuZ-8" value="Authorization successful?" style="rhombus;whiteSpace=wrap;html=1;" vertex="1" parent="1">
          <mxGeometry x="100" y="390" width="90" height="100" as="geometry" />
        </mxCell>
        <mxCell id="u4POlAHBwoxaa7_STbuZ-15" style="edgeStyle=orthogonalEdgeStyle;rounded=0;orthogonalLoop=1;jettySize=auto;html=1;entryX=0.5;entryY=0;entryDx=0;entryDy=0;" edge="1" parent="1" source="u4POlAHBwoxaa7_STbuZ-10" target="u4POlAHBwoxaa7_STbuZ-11">
          <mxGeometry relative="1" as="geometry" />
        </mxCell>
        <mxCell id="u4POlAHBwoxaa7_STbuZ-10" value="App shows &quot;Error , please try again&quot; message" style="rounded=0;whiteSpace=wrap;html=1;" vertex="1" parent="1">
          <mxGeometry x="85" y="570" width="120" height="60" as="geometry" />
        </mxCell>
        <mxCell id="u4POlAHBwoxaa7_STbuZ-16" style="edgeStyle=orthogonalEdgeStyle;rounded=0;orthogonalLoop=1;jettySize=auto;html=1;entryX=0.5;entryY=0;entryDx=0;entryDy=0;" edge="1" parent="1" source="u4POlAHBwoxaa7_STbuZ-11" target="u4POlAHBwoxaa7_STbuZ-12">
          <mxGeometry relative="1" as="geometry" />
        </mxCell>
        <mxCell id="u4POlAHBwoxaa7_STbuZ-11" value="App remains on the login screen" style="rounded=0;whiteSpace=wrap;html=1;" vertex="1" parent="1">
          <mxGeometry x="85" y="690" width="120" height="60" as="geometry" />
        </mxCell>
        <mxCell id="u4POlAHBwoxaa7_STbuZ-12" value="ENd" style="ellipse;whiteSpace=wrap;html=1;aspect=fixed;" vertex="1" parent="1">
          <mxGeometry x="105" y="800" width="80" height="80" as="geometry" />
        </mxCell>
        <mxCell id="u4POlAHBwoxaa7_STbuZ-14" style="edgeStyle=orthogonalEdgeStyle;rounded=0;orthogonalLoop=1;jettySize=auto;html=1;entryX=0.389;entryY=0.067;entryDx=0;entryDy=0;entryPerimeter=0;" edge="1" parent="1" source="u4POlAHBwoxaa7_STbuZ-8" target="u4POlAHBwoxaa7_STbuZ-10">
          <mxGeometry relative="1" as="geometry" />
        </mxCell>
        <mxCell id="u4POlAHBwoxaa7_STbuZ-17" value="No" style="edgeLabel;html=1;align=center;verticalAlign=middle;resizable=0;points=[];" vertex="1" connectable="0" parent="u4POlAHBwoxaa7_STbuZ-14">
          <mxGeometry x="-0.5754" y="-2" relative="1" as="geometry">
            <mxPoint y="1" as="offset" />
          </mxGeometry>
        </mxCell>
        <mxCell id="u4POlAHBwoxaa7_STbuZ-22" style="edgeStyle=orthogonalEdgeStyle;rounded=0;orthogonalLoop=1;jettySize=auto;html=1;" edge="1" parent="1" source="u4POlAHBwoxaa7_STbuZ-18">
          <mxGeometry relative="1" as="geometry">
            <mxPoint x="550" y="440" as="targetPoint" />
          </mxGeometry>
        </mxCell>
        <mxCell id="u4POlAHBwoxaa7_STbuZ-18" value="App navigates to main gallery" style="rounded=0;whiteSpace=wrap;html=1;" vertex="1" parent="1">
          <mxGeometry x="353" y="410" width="120" height="60" as="geometry" />
        </mxCell>
        <mxCell id="u4POlAHBwoxaa7_STbuZ-21" value="End" style="ellipse;whiteSpace=wrap;html=1;aspect=fixed;" vertex="1" parent="1">
          <mxGeometry x="550" y="390" width="80" height="80" as="geometry" />
        </mxCell>
      </root>
    </mxGraphModel>
  </diagram>
  <diagram id="rivRaJIrPn5t203PyyWC" name="User authentication-Server side architecture">
    <mxGraphModel dx="2977" dy="2872" grid="1" gridSize="10" guides="1" tooltips="1" connect="1" arrows="1" fold="1" page="1" pageScale="1" pageWidth="827" pageHeight="1169" math="0" shadow="0">
      <root>
        <mxCell id="0" />
        <mxCell id="1" parent="0" />
        <mxCell id="GTOciMCB4SEZUP07P2-_-1" value="&lt;h1 data-pm-slice=&quot;1 1 []&quot;&gt;Authentication - Server-Side Architecture Diagram&lt;/h1&gt;&lt;h1 style=&quot;margin-top: 0px;&quot;&gt;&lt;p&gt;&lt;strong&gt;Goal:&lt;/strong&gt; To detail the server-only, bidirectional flow for user authentication. This diagram represents the internal logic of the &quot;Begin Sign-In Process&quot; black box.&lt;/p&gt;&lt;/h1&gt;" style="text;html=1;whiteSpace=wrap;overflow=hidden;rounded=0;" vertex="1" parent="1">
          <mxGeometry x="40" y="-1130" width="1310" height="180" as="geometry" />
        </mxCell>
        <mxCell id="GTOciMCB4SEZUP07P2-_-8" value="Authentication-Server side architecture" style="swimlane;childLayout=stackLayout;resizeParent=1;resizeParentMax=0;startSize=20;html=1;" vertex="1" parent="1">
          <mxGeometry x="413.00000000000045" y="-829" width="1440" height="730" as="geometry" />
        </mxCell>
        <mxCell id="GTOciMCB4SEZUP07P2-_-9" value="et" style="swimlane;startSize=20;html=1;" vertex="1" parent="GTOciMCB4SEZUP07P2-_-8">
          <mxGeometry y="20" width="350" height="710" as="geometry" />
        </mxCell>
        <mxCell id="GTOciMCB4SEZUP07P2-_-23" style="edgeStyle=orthogonalEdgeStyle;rounded=0;orthogonalLoop=1;jettySize=auto;html=1;" edge="1" parent="GTOciMCB4SEZUP07P2-_-9" source="GTOciMCB4SEZUP07P2-_-14">
          <mxGeometry relative="1" as="geometry">
            <mxPoint x="143.49999999999955" y="339" as="targetPoint" />
          </mxGeometry>
        </mxCell>
        <mxCell id="GTOciMCB4SEZUP07P2-_-14" value="" style="sketch=0;points=[[0,0,0],[0.25,0,0],[0.5,0,0],[0.75,0,0],[1,0,0],[0,1,0],[0.25,1,0],[0.5,1,0],[0.75,1,0],[1,1,0],[0,0.25,0],[0,0.5,0],[0,0.75,0],[1,0.25,0],[1,0.5,0],[1,0.75,0]];outlineConnect=0;fontColor=#232F3E;fillColor=#DD344C;strokeColor=#ffffff;dashed=0;verticalLabelPosition=bottom;verticalAlign=top;align=center;html=1;fontSize=12;fontStyle=0;aspect=fixed;shape=mxgraph.aws4.resourceIcon;resIcon=mxgraph.aws4.cognito;" vertex="1" parent="GTOciMCB4SEZUP07P2-_-9">
          <mxGeometry x="77" y="92" width="133" height="133" as="geometry" />
        </mxCell>
        <mxCell id="GTOciMCB4SEZUP07P2-_-26" style="edgeStyle=orthogonalEdgeStyle;rounded=0;orthogonalLoop=1;jettySize=auto;html=1;" edge="1" parent="GTOciMCB4SEZUP07P2-_-9" source="GTOciMCB4SEZUP07P2-_-22">
          <mxGeometry relative="1" as="geometry">
            <mxPoint x="816.9999999999995" y="389.4999999999998" as="targetPoint" />
          </mxGeometry>
        </mxCell>
        <mxCell id="GTOciMCB4SEZUP07P2-_-27" value="(4a. Post-Confirmation Event...)" style="edgeLabel;html=1;align=center;verticalAlign=middle;resizable=0;points=[];" vertex="1" connectable="0" parent="GTOciMCB4SEZUP07P2-_-26">
          <mxGeometry x="-0.0835" relative="1" as="geometry">
            <mxPoint x="34" as="offset" />
          </mxGeometry>
        </mxCell>
        <mxCell id="GTOciMCB4SEZUP07P2-_-28" value="Yes" style="edgeLabel;html=1;align=center;verticalAlign=middle;resizable=0;points=[];" vertex="1" connectable="0" parent="GTOciMCB4SEZUP07P2-_-26">
          <mxGeometry x="-0.9237" y="-1" relative="1" as="geometry">
            <mxPoint as="offset" />
          </mxGeometry>
        </mxCell>
        <mxCell id="GTOciMCB4SEZUP07P2-_-44" style="edgeStyle=orthogonalEdgeStyle;rounded=0;orthogonalLoop=1;jettySize=auto;html=1;entryX=0.25;entryY=1;entryDx=0;entryDy=0;entryPerimeter=0;" edge="1" parent="GTOciMCB4SEZUP07P2-_-9" source="GTOciMCB4SEZUP07P2-_-22" target="GTOciMCB4SEZUP07P2-_-14">
          <mxGeometry relative="1" as="geometry">
            <mxPoint x="66.99999999999955" y="229" as="targetPoint" />
            <Array as="points">
              <mxPoint x="67" y="390" />
              <mxPoint x="67" y="282" />
              <mxPoint x="110" y="282" />
            </Array>
          </mxGeometry>
        </mxCell>
        <mxCell id="GTOciMCB4SEZUP07P2-_-45" value="NO" style="edgeLabel;html=1;align=center;verticalAlign=middle;resizable=0;points=[];" vertex="1" connectable="0" parent="GTOciMCB4SEZUP07P2-_-44">
          <mxGeometry x="-0.561" relative="1" as="geometry">
            <mxPoint y="-1" as="offset" />
          </mxGeometry>
        </mxCell>
        <mxCell id="GTOciMCB4SEZUP07P2-_-47" value="Bypass the labmda logic and return back to cognitoo indicating empty tokens" style="edgeLabel;html=1;align=center;verticalAlign=middle;resizable=0;points=[];" vertex="1" connectable="0" parent="GTOciMCB4SEZUP07P2-_-44">
          <mxGeometry x="0.1954" y="-5" relative="1" as="geometry">
            <mxPoint x="-129" y="22" as="offset" />
          </mxGeometry>
        </mxCell>
        <mxCell id="GTOciMCB4SEZUP07P2-_-22" value="New User?" style="rhombus;whiteSpace=wrap;html=1;" vertex="1" parent="GTOciMCB4SEZUP07P2-_-9">
          <mxGeometry x="85.25" y="340" width="116.5" height="99" as="geometry" />
        </mxCell>
        <mxCell id="GTOciMCB4SEZUP07P2-_-10" value="Google" style="swimlane;startSize=20;html=1;" vertex="1" parent="GTOciMCB4SEZUP07P2-_-8">
          <mxGeometry x="350" y="20" width="360" height="710" as="geometry" />
        </mxCell>
        <mxCell id="GTOciMCB4SEZUP07P2-_-16" value="" style="sketch=0;verticalLabelPosition=bottom;sketch=0;aspect=fixed;html=1;verticalAlign=top;strokeColor=none;fillColor=#000000;align=center;outlineConnect=0;pointerEvents=1;shape=mxgraph.citrix2.authentication_google;" vertex="1" parent="GTOciMCB4SEZUP07P2-_-10">
          <mxGeometry x="126" y="104.5" width="108" height="108" as="geometry" />
        </mxCell>
        <mxCell id="GTOciMCB4SEZUP07P2-_-11" value="lambda" style="swimlane;startSize=20;html=1;" vertex="1" parent="GTOciMCB4SEZUP07P2-_-8">
          <mxGeometry x="710" y="20" width="330" height="710" as="geometry" />
        </mxCell>
        <mxCell id="GTOciMCB4SEZUP07P2-_-30" style="edgeStyle=orthogonalEdgeStyle;rounded=0;orthogonalLoop=1;jettySize=auto;html=1;" edge="1" parent="GTOciMCB4SEZUP07P2-_-11" source="GTOciMCB4SEZUP07P2-_-24">
          <mxGeometry relative="1" as="geometry">
            <mxPoint x="466.99999999999955" y="386" as="targetPoint" />
          </mxGeometry>
        </mxCell>
        <mxCell id="GTOciMCB4SEZUP07P2-_-33" value="(5a. INSERT new user...)" style="edgeLabel;html=1;align=center;verticalAlign=middle;resizable=0;points=[];" vertex="1" connectable="0" parent="GTOciMCB4SEZUP07P2-_-30">
          <mxGeometry x="-0.2419" y="-1" relative="1" as="geometry">
            <mxPoint x="32" y="-1" as="offset" />
          </mxGeometry>
        </mxCell>
        <mxCell id="GTOciMCB4SEZUP07P2-_-24" value="" style="outlineConnect=0;dashed=0;verticalLabelPosition=bottom;verticalAlign=top;align=center;html=1;shape=mxgraph.aws3.lambda_function;fillColor=#F58534;gradientColor=none;" vertex="1" parent="GTOciMCB4SEZUP07P2-_-11">
          <mxGeometry x="108.5" y="333.5" width="113" height="105.5" as="geometry" />
        </mxCell>
        <mxCell id="GTOciMCB4SEZUP07P2-_-25" value="PostConfirmationTrigger" style="text;html=1;whiteSpace=wrap;strokeColor=none;fillColor=none;align=center;verticalAlign=middle;rounded=0;" vertex="1" parent="GTOciMCB4SEZUP07P2-_-11">
          <mxGeometry x="84" y="449" width="162" height="30" as="geometry" />
        </mxCell>
        <mxCell id="GTOciMCB4SEZUP07P2-_-12" value="Amazon RDS" style="swimlane;startSize=20;html=1;" vertex="1" parent="GTOciMCB4SEZUP07P2-_-8">
          <mxGeometry x="1040" y="20" width="400" height="710" as="geometry" />
        </mxCell>
        <mxCell id="GTOciMCB4SEZUP07P2-_-29" value="Amazon RDS" style="sketch=0;outlineConnect=0;fontColor=#232F3E;gradientColor=none;strokeColor=#ffffff;fillColor=#232F3E;dashed=0;verticalLabelPosition=middle;verticalAlign=bottom;align=center;html=1;whiteSpace=wrap;fontSize=10;fontStyle=1;spacing=3;shape=mxgraph.aws4.productIcon;prIcon=mxgraph.aws4.rds;" vertex="1" parent="GTOciMCB4SEZUP07P2-_-12">
          <mxGeometry x="136.99999999999955" y="349" width="80" height="100" as="geometry" />
        </mxCell>
        <mxCell id="GTOciMCB4SEZUP07P2-_-18" style="edgeStyle=orthogonalEdgeStyle;rounded=0;orthogonalLoop=1;jettySize=auto;html=1;" edge="1" parent="GTOciMCB4SEZUP07P2-_-8" source="GTOciMCB4SEZUP07P2-_-14" target="GTOciMCB4SEZUP07P2-_-16">
          <mxGeometry relative="1" as="geometry" />
        </mxCell>
        <mxCell id="GTOciMCB4SEZUP07P2-_-19" value="(2. Redirect to Google auth page)" style="edgeLabel;html=1;align=center;verticalAlign=middle;resizable=0;points=[];" vertex="1" connectable="0" parent="GTOciMCB4SEZUP07P2-_-18">
          <mxGeometry x="0.0796" y="5" relative="1" as="geometry">
            <mxPoint as="offset" />
          </mxGeometry>
        </mxCell>
        <mxCell id="GTOciMCB4SEZUP07P2-_-20" style="edgeStyle=orthogonalEdgeStyle;rounded=0;orthogonalLoop=1;jettySize=auto;html=1;" edge="1" parent="GTOciMCB4SEZUP07P2-_-8" source="GTOciMCB4SEZUP07P2-_-16">
          <mxGeometry relative="1" as="geometry">
            <mxPoint x="216.99999999999955" y="209" as="targetPoint" />
            <Array as="points">
              <mxPoint x="357" y="209" />
              <mxPoint x="357" y="209" />
            </Array>
          </mxGeometry>
        </mxCell>
        <mxCell id="GTOciMCB4SEZUP07P2-_-21" value="(3. Google auth token)" style="edgeLabel;html=1;align=center;verticalAlign=middle;resizable=0;points=[];" vertex="1" connectable="0" parent="GTOciMCB4SEZUP07P2-_-20">
          <mxGeometry x="-0.1997" y="3" relative="1" as="geometry">
            <mxPoint x="-24" as="offset" />
          </mxGeometry>
        </mxCell>
        <mxCell id="GTOciMCB4SEZUP07P2-_-32" style="edgeStyle=orthogonalEdgeStyle;rounded=0;orthogonalLoop=1;jettySize=auto;html=1;" edge="1" parent="GTOciMCB4SEZUP07P2-_-8" source="GTOciMCB4SEZUP07P2-_-29" target="GTOciMCB4SEZUP07P2-_-24">
          <mxGeometry relative="1" as="geometry">
            <Array as="points">
              <mxPoint x="997" y="459" />
              <mxPoint x="997" y="429" />
            </Array>
          </mxGeometry>
        </mxCell>
        <mxCell id="GTOciMCB4SEZUP07P2-_-34" value="(6. INSERT success)" style="edgeLabel;html=1;align=center;verticalAlign=middle;resizable=0;points=[];" vertex="1" connectable="0" parent="GTOciMCB4SEZUP07P2-_-32">
          <mxGeometry x="-0.4745" y="-4" relative="1" as="geometry">
            <mxPoint as="offset" />
          </mxGeometry>
        </mxCell>
        <mxCell id="GTOciMCB4SEZUP07P2-_-35" style="edgeStyle=orthogonalEdgeStyle;rounded=0;orthogonalLoop=1;jettySize=auto;html=1;" edge="1" parent="GTOciMCB4SEZUP07P2-_-8" source="GTOciMCB4SEZUP07P2-_-24" target="GTOciMCB4SEZUP07P2-_-14">
          <mxGeometry relative="1" as="geometry">
            <Array as="points">
              <mxPoint x="875" y="339" />
              <mxPoint x="177" y="339" />
            </Array>
          </mxGeometry>
        </mxCell>
        <mxCell id="GTOciMCB4SEZUP07P2-_-36" value="(7a. Return Success)" style="edgeLabel;html=1;align=center;verticalAlign=middle;resizable=0;points=[];" vertex="1" connectable="0" parent="GTOciMCB4SEZUP07P2-_-35">
          <mxGeometry x="-0.1468" y="-4" relative="1" as="geometry">
            <mxPoint x="1" as="offset" />
          </mxGeometry>
        </mxCell>
        <mxCell id="GTOciMCB4SEZUP07P2-_-15" style="edgeStyle=orthogonalEdgeStyle;rounded=0;orthogonalLoop=1;jettySize=auto;html=1;" edge="1" parent="1" source="GTOciMCB4SEZUP07P2-_-13" target="GTOciMCB4SEZUP07P2-_-14">
          <mxGeometry relative="1" as="geometry" />
        </mxCell>
        <mxCell id="GTOciMCB4SEZUP07P2-_-17" value="(1. Request sign-in with Google)" style="edgeLabel;html=1;align=center;verticalAlign=middle;resizable=0;points=[];" vertex="1" connectable="0" parent="GTOciMCB4SEZUP07P2-_-15">
          <mxGeometry x="-0.1521" y="1" relative="1" as="geometry">
            <mxPoint as="offset" />
          </mxGeometry>
        </mxCell>
        <mxCell id="GTOciMCB4SEZUP07P2-_-13" value="Mobile App(External factor)" style="rounded=0;whiteSpace=wrap;html=1;" vertex="1" parent="1">
          <mxGeometry x="80" y="-680" width="120" height="60" as="geometry" />
        </mxCell>
        <mxCell id="GTOciMCB4SEZUP07P2-_-39" style="edgeStyle=orthogonalEdgeStyle;rounded=0;orthogonalLoop=1;jettySize=auto;html=1;" edge="1" parent="1" source="GTOciMCB4SEZUP07P2-_-14" target="GTOciMCB4SEZUP07P2-_-13">
          <mxGeometry relative="1" as="geometry">
            <Array as="points">
              <mxPoint x="345" y="-600" />
              <mxPoint x="345" y="-580" />
              <mxPoint x="140" y="-580" />
            </Array>
          </mxGeometry>
        </mxCell>
        <mxCell id="GTOciMCB4SEZUP07P2-_-40" value="(8. JWT Session Tokens)" style="edgeLabel;html=1;align=center;verticalAlign=middle;resizable=0;points=[];" vertex="1" connectable="0" parent="GTOciMCB4SEZUP07P2-_-39">
          <mxGeometry x="0.1128" y="-5" relative="1" as="geometry">
            <mxPoint as="offset" />
          </mxGeometry>
        </mxCell>
      </root>
    </mxGraphModel>
  </diagram>
  <diagram id="W-qCBIPBZiyUkA25audJ" name="User Authentication-Block diagram">
    <mxGraphModel dx="1042" dy="596" grid="1" gridSize="10" guides="1" tooltips="1" connect="1" arrows="1" fold="1" page="1" pageScale="1" pageWidth="827" pageHeight="1169" math="0" shadow="0">
      <root>
        <mxCell id="0" />
        <mxCell id="1" parent="0" />
        <mxCell id="jxgJ1hzXBz0i8RolXNtF-1" value="" style="whiteSpace=wrap;html=1;aspect=fixed;" vertex="1" parent="1">
          <mxGeometry x="260" y="120" width="260" height="260" as="geometry" />
        </mxCell>
        <mxCell id="jxgJ1hzXBz0i8RolXNtF-2" value="Amazon RDS Instance: &quot;User auth&quot;" style="text;html=1;whiteSpace=wrap;strokeColor=none;fillColor=none;align=center;verticalAlign=middle;rounded=0;" vertex="1" parent="1">
          <mxGeometry x="267" y="135" width="246" height="30" as="geometry" />
        </mxCell>
        <mxCell id="jxgJ1hzXBz0i8RolXNtF-3" value="" style="rounded=0;whiteSpace=wrap;html=1;" vertex="1" parent="1">
          <mxGeometry x="273" y="205" width="230" height="160" as="geometry" />
        </mxCell>
        <mxCell id="jxgJ1hzXBz0i8RolXNtF-4" value="Table: &quot;users&quot;" style="text;html=1;whiteSpace=wrap;strokeColor=none;fillColor=none;align=center;verticalAlign=middle;rounded=0;" vertex="1" parent="1">
          <mxGeometry x="273" y="215" width="140" height="30" as="geometry" />
        </mxCell>
        <mxCell id="jxgJ1hzXBz0i8RolXNtF-5" value="- user_id (Primary Key)&lt;div&gt;- email&lt;br&gt;&lt;br&gt;&lt;/div&gt;" style="text;html=1;whiteSpace=wrap;strokeColor=none;fillColor=none;align=center;verticalAlign=middle;rounded=0;" vertex="1" parent="1">
          <mxGeometry x="303" y="265" width="163" height="70" as="geometry" />
        </mxCell>
        <mxCell id="jxgJ1hzXBz0i8RolXNtF-6" value="&lt;h3 data-pm-slice=&quot;1 1 []&quot;&gt;&lt;strong&gt;2. Amazon RDS (PostgreSQL): Database Schema&lt;/strong&gt;&lt;/h3&gt;&lt;p&gt;This diagram shows the database tables we will create inside our PostgreSQL instance. These tables will hold all the metadata for our application.&lt;/p&gt;" style="text;html=1;whiteSpace=wrap;strokeColor=none;fillColor=none;align=center;verticalAlign=middle;rounded=0;" vertex="1" parent="1">
          <mxGeometry x="19" y="40" width="790" height="30" as="geometry" />
        </mxCell>
      </root>
    </mxGraphModel>
  </diagram>
</mxfile>
